<?xml version="1.0" encoding="UTF-8"?>
<svg viewBox="0 0 900 1200" xmlns="http://www.w3.org/2000/svg">
  <!-- Background -->
  <rect width="900" height="1200" fill="#f8f9fa" />
  
  <!-- Title -->
  <text x="450" y="40" font-family="Arial" font-size="24" text-anchor="middle" font-weight="bold">ECAPA-TDNN Speech Diarization Architecture</text>
  
  <!-- Input -->
  <rect x="350" y="70" width="200" height="40" rx="5" fill="#e3f2fd" stroke="#1565c0" stroke-width="2" />
  <text x="450" y="95" font-family="Arial" font-size="16" text-anchor="middle">Input Mel Spectrogram [B, 80, T]</text>
  
  <!-- ==================== ENCODER SECTION ==================== -->
  <rect x="200" y="130" width="500" height="460" rx="10" fill="#f5f5f5" stroke="#9e9e9e" stroke-width="2" stroke-dasharray="5,5" />
  <text x="450" y="155" font-family="Arial" font-size="18" text-anchor="middle" font-weight="bold">ECAPA-TDNN Encoder</text>
  
  <!-- Initial Conv -->
  <rect x="350" y="170" width="200" height="40" rx="5" fill="#e8f5e9" stroke="#2e7d32" stroke-width="2" />
  <text x="450" y="195" font-family="Arial" font-size="14" text-anchor="middle">Initial Conv1D [B, 512, T]</text>
  
  <!-- TDNN Blocks -->
  <rect x="250" y="230" width="400" height="200" rx="8" fill="#fffde7" stroke="#fbc02d" stroke-width="2" />
  <text x="450" y="255" font-family="Arial" font-size="16" text-anchor="middle" font-weight="bold">3 × ECAPA-TDNN Blocks</text>
  
  <!-- TDNN Block Detail -->
  <rect x="270" y="275" width="110" height="30" rx="5" fill="#e3f2fd" stroke="#1565c0" stroke-width="1" />
  <text x="325" y="295" font-family="Arial" font-size="12" text-anchor="middle">TDNN Conv</text>
  
  <rect x="270" y="315" width="360" height="80" rx="5" fill="#e3f2fd" stroke="#1565c0" stroke-width="1" />
  <text x="450" y="335" font-family="Arial" font-size="12" text-anchor="middle" font-weight="bold">Res2Block</text>
  
  <!-- Res2Block Detail -->
  <rect x="280" y="345" width="80" height="20" rx="3" fill="#bbdefb" stroke="#1565c0" stroke-width="1" />
  <text x="320" y="360" font-family="Arial" font-size="10" text-anchor="middle">Split</text>
  
  <rect x="370" y="345" width="80" height="20" rx="3" fill="#bbdefb" stroke="#1565c0" stroke-width="1" />
  <text x="410" y="360" font-family="Arial" font-size="10" text-anchor="middle">Conv</text>
  
  <rect x="460" y="345" width="80" height="20" rx="3" fill="#bbdefb" stroke="#1565c0" stroke-width="1" />
  <text x="500" y="360" font-family="Arial" font-size="10" text-anchor="middle">Concat</text>
  
  <rect x="270" y="405" width="110" height="30" rx="5" fill="#e3f2fd" stroke="#1565c0" stroke-width="1" />
  <text x="325" y="425" font-family="Arial" font-size="12" text-anchor="middle">SE Block</text>
  
  <!-- MFA -->
  <rect x="350" y="440" width="200" height="40" rx="5" fill="#e8f5e9" stroke="#2e7d32" stroke-width="2" />
  <text x="450" y="465" font-family="Arial" font-size="14" text-anchor="middle">MFA Conv1D [B, 512, T]</text>
  
  <!-- Attentive Stats Pooling -->
  <rect x="300" y="490" width="300" height="60" rx="5" fill="#e1bee7" stroke="#7b1fa2" stroke-width="2" />
  <text x="450" y="515" font-family="Arial" font-size="14" text-anchor="middle" font-weight="bold">Attentive Stats Pooling</text>
  <text x="450" y="535" font-family="Arial" font-size="12" text-anchor="middle">[B, 1024] (Mean & Std concatenated)</text>
  
  <!-- FC Layer -->
  <rect x="350" y="560" width="200" height="40" rx="5" fill="#e8f5e9" stroke="#2e7d32" stroke-width="2" />
  <text x="450" y="585" font-family="Arial" font-size="14" text-anchor="middle">FC [B, 192]</text>
  
  <!-- Encoder Outputs -->
  <rect x="250" y="610" width="180" height="40" rx="5" fill="#ffcdd2" stroke="#c62828" stroke-width="2" />
  <text x="340" y="635" font-family="Arial" font-size="14" text-anchor="middle">Embedding [B, 192]</text>
  
  <rect x="470" y="610" width="180" height="40" rx="5" fill="#d1c4e9" stroke="#512da8" stroke-width="2" />
  <text x="560" y="635" font-family="Arial" font-size="14" text-anchor="middle">Framewise [B, 512, T]</text>
  
  <!-- ==================== COMBINER SECTION ==================== -->
  <rect x="80" y="670" width="320" height="160" rx="10" fill="#fff3e0" stroke="#e65100" stroke-width="2" />
  <text x="240" y="695" font-family="Arial" font-size="18" text-anchor="middle" font-weight="bold">Combiner</text>
  
  <!-- Combiner Components -->
  <rect x="120" y="710" width="240" height="40" rx="5" fill="#ffe0b2" stroke="#e65100" stroke-width="1" />
  <text x="240" y="735" font-family="Arial" font-size="14" text-anchor="middle">Sigmoid Gate</text>
  
  <rect x="120" y="760" width="240" height="40" rx="5" fill="#ffe0b2" stroke="#e65100" stroke-width="1" />
  <text x="240" y="785" font-family="Arial" font-size="14" text-anchor="middle">α * Learnable Matrix G [B, 192, 11]</text>
  
  <!-- I0 Output -->
  <rect x="120" y="810" width="240" height="40" rx="5" fill="#ffcdd2" stroke="#c62828" stroke-width="2" />
  <text x="240" y="835" font-family="Arial" font-size="14" text-anchor="middle">Initial Attractors I₀ [B, 192, 11]</text>
  
  <!-- ==================== DECODER SECTION ==================== -->
  <rect x="500" y="670" width="320" height="260" rx="10" fill="#e1f5fe" stroke="#0277bd" stroke-width="2" />
  <text x="660" y="695" font-family="Arial" font-size="18" text-anchor="middle" font-weight="bold">Transformer Decoder</text>
  
  <!-- Decoder Components -->
  <rect x="520" y="710" width="280" height="40" rx="5" fill="#b3e5fc" stroke="#0277bd" stroke-width="1" />
  <text x="660" y="735" font-family="Arial" font-size="14" text-anchor="middle">Query Projection [S+1, B, 192]</text>
  
  <rect x="520" y="760" width="280" height="40" rx="5" fill="#b3e5fc" stroke="#0277bd" stroke-width="1" />
  <text x="660" y="785" font-family="Arial" font-size="14" text-anchor="middle">Memory Projection [T, B, 192]</text>
  
  <rect x="520" y="810" width="280" height="60" rx="5" fill="#b3e5fc" stroke="#0277bd" stroke-width="1" />
  <text x="660" y="835" font-family="Arial" font-size="14" text-anchor="middle" font-weight="bold">Transformer Decoder Layers (6)</text>
  <text x="660" y="855" font-family="Arial" font-size="12" text-anchor="middle">Multi-head Attention + FFN</text>
  
  <!-- Final Attractors -->
  <rect x="520" y="880" width="280" height="40" rx="5" fill="#ffcdd2" stroke="#c62828" stroke-width="2" />
  <text x="660" y="905" font-family="Arial" font-size="14" text-anchor="middle">Final Attractors A [B, 192, 11]</text>
  
  <!-- ==================== FINAL PROCESSING ==================== -->
  <rect x="300" y="950" width="300" height="180" rx="10" fill="#f3e5f5" stroke="#7b1fa2" stroke-width="2" />
  <text x="450" y="975" font-family="Arial" font-size="18" text-anchor="middle" font-weight="bold">Output Processing</text>
  
  <!-- Remove Non-Speaker Attractor -->
  <rect x="320" y="990" width="260" height="40" rx="5" fill="#e1bee7" stroke="#7b1fa2" stroke-width="1" />
  <text x="450" y="1015" font-family="Arial" font-size="14" text-anchor="middle">Remove Non-Speaker [B, 192, 10]</text>
  
  <!-- Similarity -->
  <rect x="320" y="1040" width="260" height="40" rx="5" fill="#e1bee7" stroke="#7b1fa2" stroke-width="1" />
  <text x="450" y="1065" font-family="Arial" font-size="14" text-anchor="middle">Einsum(A, E) → [B, 10, T]</text>
  
  <!-- Output -->
  <rect x="320" y="1090" width="260" height="40" rx="5" fill="#e1bee7" stroke="#7b1fa2" stroke-width="1" />
  <text x="450" y="1115" font-family="Arial" font-size="14" text-anchor="middle">Sigmoid [B, 10, T]</text>
  
  <!-- Final Output -->
  <rect x="300" y="1150" width="300" height="40" rx="5" fill="#c8e6c9" stroke="#2e7d32" stroke-width="2" />
  <text x="450" y="1175" font-family="Arial" font-size="16" text-anchor="middle" font-weight="bold">Speaker Activity Prediction [B, 10, T]</text>
  
  <!-- ==================== ARROWS ==================== -->
  <!-- Input to Initial Conv -->
  <line x1="450" y1="110" x2="450" y2="170" stroke="#424242" stroke-width="2" marker-end="url(#arrowhead)" />
  
  <!-- Initial Conv to TDNN Blocks -->
  <line x1="450" y1="210" x2="450" y2="230" stroke="#424242" stroke-width="2" marker-end="url(#arrowhead)" />
  
  <!-- TDNN Blocks to MFA -->
  <line x1="450" y1="430" x2="450" y2="440" stroke="#424242" stroke-width="2" marker-end="url(#arrowhead)" />
  
  <!-- MFA to Attentive Stats Pooling -->
  <line x1="450" y1="480" x2="450" y2="490" stroke="#424242" stroke-width="2" marker-end="url(#arrowhead)" />
  
  <!-- Attentive Stats Pooling to FC -->
  <line x1="450" y1="550" x2="450" y2="560" stroke="#424242" stroke-width="2" marker-end="url(#arrowhead)" />
  
  <!-- FC to Embedding -->
  <line x1="450" y1="600" x2="340" y2="610" stroke="#424242" stroke-width="2" marker-end="url(#arrowhead)" />
  
  <!-- MFA to Framewise (skip connection) -->
  <line x1="550" y1="460" x2="560" y2="610" stroke="#424242" stroke-width="2" marker-end="url(#arrowhead)" />
  
  <!-- Embedding to Combiner -->
  <line x1="340" y1="650" x2="240" y2="670" stroke="#424242" stroke-width="2" marker-end="url(#arrowhead)" />
  
  <!-- Framewise to Decoder Memory -->
  <line x1="560" y1="650" x2="660" y2="670" stroke="#424242" stroke-width="2" marker-end="url(#arrowhead)" />
  
  <!-- I0 to Decoder Query -->
  <polyline points="240,850 240,900 520,900" stroke="#424242" stroke-width="2" fill="none" marker-end="url(#arrowhead)" />
  
  <!-- Final Attractors to Output Processing -->
  <line x1="660" y1="920" x2="450" y2="950" stroke="#424242" stroke-width="2" marker-end="url(#arrowhead)" />
  
  <!-- Framewise to Output Processing (for einsum) -->
  <polyline points="560,650 560,940 450,940 450,950" stroke="#424242" stroke-width="2" fill="none" marker-end="url(#arrowhead)" />
  
  <!-- Output Processing Flow -->
  <line x1="450" y1="1030" x2="450" y2="1040" stroke="#424242" stroke-width="2" marker-end="url(#arrowhead)" />
  <line x1="450" y1="1080" x2="450" y2="1090" stroke="#424242" stroke-width="2" marker-end="url(#arrowhead)" />
  <line x1="450" y1="1130" x2="450" y2="1150" stroke="#424242" stroke-width="2" marker-end="url(#arrowhead)" />
  
  <!-- Arrow Definitions -->
  <defs>
    <marker id="arrowhead" markerWidth="10" markerHeight="7" refX="0" refY="3.5" orient="auto">
      <polygon points="0 0, 10 3.5, 0 7" fill="#424242" />
    </marker>
  </defs>
</svg>